HIERARCHY
ROOT Hips
{
	OFFSET 0.00000 0.00000 0.00000
	CHANNELS 6 Xposition Yposition Zposition Zrotation Yrotation Xrotation 
	JOINT LHipJoint
	{
		OFFSET 0 0 0
		CHANNELS 3 Zrotation Yrotation Xrotation
		JOINT LeftHip
		{
			OFFSET 1.62067 -1.77917 0.70989
			CHANNELS 3 Zrotation Yrotation Xrotation
			JOINT LeftKnee
			{
				OFFSET 2.34532 -6.44371 0.00000
				CHANNELS 3 Zrotation Yrotation Xrotation
				JOINT LeftAnkle
				{
					OFFSET 2.74224 -7.53425 0.00000
					CHANNELS 3 Zrotation Yrotation Xrotation
					JOINT LeftToe
					{
						OFFSET 0.17032 -0.46794 2.08086
						CHANNELS 3 Zrotation Yrotation Xrotation
						End Site
						{
							OFFSET 0.00000 -0.00000 1.07476
						}
					}
				}
			}
		}
	}
	JOINT RHipJoint
	{
		OFFSET 0 0 0
		CHANNELS 3 Zrotation Yrotation Xrotation
		JOINT RightHip
		{
			OFFSET -1.55811 -1.77917 0.70989
			CHANNELS 3 Zrotation Yrotation Xrotation
			JOINT RightKnee
			{
				OFFSET -2.33243 -6.40830 0.00000
				CHANNELS 3 Zrotation Yrotation Xrotation
				JOINT RightAnkle
				{
					OFFSET -2.78798 -7.65993 0.00000
					CHANNELS 3 Zrotation Yrotation Xrotation
					JOINT RightToe
					{
						OFFSET -0.22707 -0.62388 2.04059
						CHANNELS 3 Zrotation Yrotation Xrotation
						End Site
						{
							OFFSET -0.00000 -0.00000 1.07030
						}
					}
				}
			}
		}
	}
	JOINT lowerback
	{
		OFFSET 0 0 0
		CHANNELS 3 Zrotation Yrotation Xrotation
		JOINT Chest
		{
			OFFSET 0.02203 1.91565 0.07161
			CHANNELS 3 Zrotation Yrotation Xrotation
			JOINT Chest2
			{
				OFFSET 0.01740 1.90525 0.11636
				CHANNELS 3 Zrotation Yrotation Xrotation
				JOINT lowerneck
				{
					OFFSET 0 0 0
					CHANNELS 3 Zrotation Yrotation Xrotation
					JOINT Neck
					{
						OFFSET -0.10841 1.83566 0.05067
						CHANNELS 3 Zrotation Yrotation Xrotation
						JOINT Head
						{
							OFFSET 0.06601 1.74760 -0.50505
							CHANNELS 3 Zrotation Yrotation Xrotation
							End Site
							{
								OFFSET 0.03102 1.85215 -0.17697
							}
						}
					}
				}
				JOINT LeftCollar
				{
					OFFSET 0 0 0
					CHANNELS 3 Zrotation Yrotation Xrotation
					JOINT LeftShoulder
					{
						OFFSET 2.87059 1.35470 0.16111
CHANNELS 3 Zrotation Xrotation Yrotation
						JOINT LeftElbow
						{
OFFSET 0 -5.435920 0.000000
CHANNELS 3 Zrotation Xrotation Yrotation
							JOINT LeftWrist
							{
OFFSET 0 -3.254600 0.000000
CHANNELS 3 Zrotation Xrotation Yrotation
								JOINT lhand
								{
									OFFSET 0 0 0
CHANNELS 3 Zrotation Xrotation Yrotation
									JOINT LFingers
									{
OFFSET 0 -0.498240 0.000000
CHANNELS 3 Zrotation Xrotation Yrotation
										End Site
										{
OFFSET 0 -0.401700 0.000000
										}
									}
								}
								JOINT LThumb
								{
OFFSET 0 0.000000 0.000000
CHANNELS 3 Zrotation Xrotation Yrotation
									End Site
									{
OFFSET 0 -0.407830 0.407830
									}
								}
							}
						}
					}
				}
				JOINT RightCollar
				{
					OFFSET 0 0 0
					CHANNELS 3 Zrotation Yrotation Xrotation
					JOINT RightShoulder
					{
						OFFSET -2.86643 1.23488 0.45957
CHANNELS 3 Zrotation Xrotation Yrotation
						JOINT RightElbow
						{
OFFSET 0 -5.338300 0.000000
CHANNELS 3 Zrotation Xrotation Yrotation
							JOINT RightWrist
							{
OFFSET 0 -3.231480 0.000000
CHANNELS 3 Zrotation Xrotation Yrotation
								JOINT rhand
								{
									OFFSET 0 0 0
CHANNELS 3 Zrotation Xrotation Yrotation
									JOINT RFingers
									{
OFFSET 0 -0.463640 0.000000
CHANNELS 3 Zrotation Xrotation Yrotation
										End Site
										{
OFFSET 0 -0.373800 0.000000
										}
									}
								}
								JOINT RThumb
								{
OFFSET 0 0.000000 0.000000
CHANNELS 3 Zrotation Xrotation Yrotation
									End Site
									{
OFFSET 0 -0.379510 0.379510
									}
								}
							}
						}
					}
				}
			}
		}
	}
}
MOTION
Frames: 11
Frame Time: 0.008333333333333333
1.170202 15.273600 -5.569955 3.081583 -2.141485 -2.876055 0.000000 0.000000 0.000000 -1.433787 -29.898565 -29.672989 0.934201 6.156743 17.239991 0.485437 -2.501285 14.311222 0.687670 -5.301040 -14.769333 0.000000 0.000000 0.000000 22.006215 -24.106958 -32.579701 -12.894732 -18.743855 68.798285 -6.195792 -20.871903 -56.073764 -0.293282 -3.482422 9.624814 9.574181 10.684942 -3.020255 -6.601416 14.172426 -3.917323 -11.205194 7.097262 1.499244 -12.948368 -7.763289 2.448280 -11.889764 -3.800195 49.360282 -4.064134 -5.115963 19.056765 0.000000 0.000000 0.000000 19.090599 17.687786 -47.190534 18.032923 -28.199300 4.564808 16.843317 -26.385696 23.255942 0.000000 0.000000 0.000000 -7.125000 0.000000 0.000000 -7.614538 5.978240 -6.842654 0.000000 0.000000 0.000000 -123.795288 -78.901320 -79.039770 -158.404293 -32.517036 -113.632783 -0.053393 -61.152909 37.658324 0.000000 0.000000 0.000000 7.125000 0.000000 0.000000 41.664089 62.692228 -19.655908
1.172372 15.274455 -5.563970 3.268312 -2.010654 -2.798330 0.000000 0.000000 0.000000 -1.666296 -29.946622 -29.763696 0.937714 6.167949 17.272580 0.474612 -2.686151 14.272276 0.715638 -5.406108 -15.070583 0.000000 0.000000 0.000000 21.748736 -24.379456 -32.719223 -12.906580 -18.748182 68.835150 -6.200324 -20.666015 -55.974484 -0.281728 -3.413268 9.431624 9.294240 10.662623 -3.131531 -6.571481 14.135545 -3.859624 -11.002024 7.082951 1.540344 -13.416637 -7.742873 2.475663 -11.674624 -3.809838 49.218632 -3.865705 -5.173178 19.006060 0.000000 0.000000 0.000000 18.695231 17.783533 -46.625045 17.910097 -28.041873 4.506916 15.000851 -25.627853 24.193709 0.000000 0.000000 0.000000 -7.125000 0.000000 0.000000 -8.813424 5.283860 -8.062996 0.000000 0.000000 0.000000 -126.546375 -78.769259 -81.747619 -158.497644 -32.409996 -113.682969 -0.344500 -61.122811 38.353028 0.000000 0.000000 0.000000 7.125000 0.000000 0.000000 42.302515 63.284428 -20.600074
1.178344 15.275666 -5.554958 3.153764 -1.929325 -2.580653 0.000000 0.000000 0.000000 -1.491462 -29.952867 -30.067037 0.947059 6.197796 17.359310 0.466016 -2.832306 14.242283 0.727556 -5.449821 -15.196089 0.000000 0.000000 0.000000 21.910571 -24.592631 -33.004434 -12.887105 -18.741033 68.774622 -6.029012 -21.057673 -55.661262 -0.246127 -3.192435 8.814993 9.440307 10.636662 -3.128008 -6.597816 14.099346 -4.039005 -11.136413 7.047453 1.377886 -13.541742 -7.699636 2.349909 -11.730173 -3.667168 49.238016 -3.868810 -5.145921 19.072462 0.000000 0.000000 0.000000 18.716823 18.320115 -46.838348 18.078137 -28.257002 4.586206 16.305988 -26.402696 24.565367 0.000000 0.000000 0.000000 -7.125000 0.000000 0.000000 -8.035584 4.725913 -7.421478 0.000000 0.000000 0.000000 -128.468070 -78.934081 -83.918451 -158.527340 -32.375953 -113.698919 -0.348710 -61.193294 40.056059 0.000000 0.000000 0.000000 7.125000 0.000000 0.000000 44.696031 64.519682 -23.262418
1.165146 15.292174 -5.543138 2.661525 -2.137949 -2.896689 0.000000 0.000000 0.000000 -1.201927 -29.448793 -29.578965 0.935512 6.160918 17.251981 0.433282 -3.334036 14.106819 0.802783 -5.718490 -15.969899 0.000000 0.000000 0.000000 22.421008 -24.760940 -32.482848 -12.777925 -18.700522 68.434316 -5.874553 -21.498369 -55.433190 -0.223310 -3.042106 8.396115 9.893222 10.733900 -2.830690 -6.449929 14.246305 -4.013995 -11.249216 7.116968 1.344983 -13.779057 -7.779110 2.362523 -11.618183 -3.794985 49.311325 -3.806827 -5.231278 19.146397 0.000000 0.000000 0.000000 18.571934 18.447262 -46.323972 17.983238 -28.135656 4.541337 16.007316 -25.777975 23.970468 0.000000 0.000000 0.000000 -7.125000 0.000000 0.000000 -8.179444 5.370510 -7.455959 0.000000 0.000000 0.000000 -128.513143 -78.847827 -84.150435 -158.660044 -32.223062 -113.769763 -0.192827 -61.342885 39.402530 0.000000 0.000000 0.000000 7.125000 0.000000 0.000000 43.894769 64.009491 -22.257495
1.168282 15.297404 -5.534506 2.851513 -1.893934 -2.855517 0.000000 0.000000 0.000000 -1.488283 -29.572073 -29.606479 0.933160 6.153446 17.230374 0.443388 -3.293061 14.219011 0.788051 -5.666484 -15.819730 0.000000 0.000000 0.000000 22.156621 -25.112305 -32.478935 -12.722547 -18.679703 68.261387 -5.938781 -20.963803 -55.326819 -0.252447 -3.232948 8.927931 9.773589 10.748133 -2.950243 -6.623272 14.261871 -4.029003 -11.345924 7.132759 1.416931 -13.634818 -7.838655 2.473152 -11.653872 -3.916727 49.265205 -3.847119 -5.257816 19.063287 0.000000 0.000000 0.000000 18.707938 18.679088 -46.170690 18.047783 -28.218331 4.571880 15.555621 -25.979554 24.275545 0.000000 0.000000 0.000000 -7.125000 0.000000 0.000000 -8.477592 5.125119 -7.773684 0.000000 0.000000 0.000000 -128.983318 -78.640879 -84.788587 -158.724684 -32.148269 -113.804178 0.173710 -61.531970 38.739902 0.000000 0.000000 0.000000 7.125000 0.000000 0.000000 43.319214 63.429500 -21.334533
1.169725 15.299800 -5.525812 2.832744 -1.954207 -2.938271 0.000000 0.000000 0.000000 -1.549119 -29.489567 -29.410329 0.924265 6.124820 17.146993 0.442020 -3.404244 14.270820 0.862034 -5.920409 -16.553656 0.000000 0.000000 0.000000 22.098721 -25.191872 -32.332984 -12.711002 -18.675315 68.225511 -5.900506 -20.959305 -55.204400 -0.247165 -3.199107 8.833561 9.898952 10.912970 -2.922849 -6.760278 14.489449 -4.040612 -11.524440 7.256573 1.516591 -13.500690 -8.025575 2.542862 -11.653213 -4.233346 49.322935 -3.912209 -5.366000 19.059395 0.000000 0.000000 0.000000 18.929776 18.796492 -46.244601 17.989251 -28.143435 4.544184 15.677613 -26.098230 24.599576 0.000000 0.000000 0.000000 -7.125000 0.000000 0.000000 -8.423046 4.781313 -7.778997 0.000000 0.000000 0.000000 -128.808608 -78.385693 -84.777806 -158.880046 -31.968116 -113.886671 0.159161 -61.664599 38.180125 0.000000 0.000000 0.000000 7.125000 0.000000 0.000000 42.550297 63.023322 -20.483642
1.171779 15.299419 -5.518171 3.133736 -1.866876 -2.982402 0.000000 0.000000 0.000000 -1.943412 -29.564112 -29.190386 0.899513 6.044384 16.913241 0.447497 -3.306580 14.283057 0.835185 -5.829874 -16.291596 0.000000 0.000000 0.000000 21.685549 -25.353891 -32.314277 -12.733044 -18.683663 68.294331 -6.066240 -20.484557 -55.456508 -0.263364 -3.301287 9.118735 9.685991 11.069955 -3.000275 -7.002970 14.703650 -4.102315 -11.623897 7.371454 1.566826 -12.994415 -8.108569 2.978344 -11.804642 -4.435155 49.321704 -4.054931 -5.370339 18.875380 0.000000 0.000000 0.000000 19.164012 18.942936 -46.536754 17.980575 -28.132276 4.540107 16.404829 -26.288623 23.944145 0.000000 0.000000 0.000000 -7.125000 0.000000 0.000000 -7.932428 5.341004 -7.230584 0.000000 0.000000 0.000000 -126.964312 -78.196622 -83.150431 -159.061283 -31.756746 -113.982296 -0.006975 -61.613250 38.570712 0.000000 0.000000 0.000000 7.125000 0.000000 0.000000 42.915155 63.354791 -21.022731
1.177852 15.300524 -5.512361 3.488836 -1.533188 -2.907027 0.000000 0.000000 0.000000 -2.499545 -29.649916 -29.147658 0.875637 5.965843 16.685319 0.450231 -3.508032 14.449696 0.848258 -5.874154 -16.419828 0.000000 0.000000 0.000000 21.247193 -25.763736 -32.533974 -12.752842 -18.691080 68.356187 -5.919964 -20.878700 -55.220220 -0.232729 -3.104299 8.569206 9.322105 11.048953 -3.217234 -7.213609 14.668187 -4.162319 -11.626738 7.356912 1.582924 -12.486216 -8.122080 3.343645 -12.067478 -4.487274 49.197806 -4.219243 -5.325276 18.627880 0.000000 0.000000 0.000000 19.305661 19.287820 -46.689912 18.122306 -28.313399 4.607184 16.691212 -26.314838 23.184258 0.000000 0.000000 0.000000 -7.125000 0.000000 0.000000 -7.704313 6.071951 -6.910450 0.000000 0.000000 0.000000 -126.351003 -78.143283 -82.634105 -159.203749 -31.589722 -114.057148 0.444080 -61.726554 38.810039 0.000000 0.000000 0.000000 7.125000 0.000000 0.000000 43.672631 63.407353 -21.521294
1.176281 15.302878 -5.501270 3.524541 -1.475962 -2.943360 0.000000 0.000000 0.000000 -2.619151 -29.596748 -29.125292 0.883034 5.990334 16.756365 0.436003 -3.725169 14.399978 0.858913 -5.910077 -16.523715 0.000000 0.000000 0.000000 21.206988 -25.858240 -32.455841 -12.704188 -18.672764 68.204274 -5.687227 -21.656360 -54.940686 -0.194681 -2.841036 7.836622 9.203541 11.030883 -3.296011 -7.238134 14.639346 -4.168477 -11.580141 7.342790 1.590356 -12.068825 -8.044141 2.965305 -12.414370 -4.131019 49.632537 -4.504220 -5.150921 18.992259 0.000000 0.000000 0.000000 19.390632 19.822008 -46.816884 18.373954 -28.633381 4.727081 16.995494 -26.284029 22.228354 0.000000 0.000000 0.000000 -7.125000 0.000000 0.000000 -7.454386 7.003337 -6.546316 0.000000 0.000000 0.000000 -126.118734 -78.182320 -82.134030 -159.248985 -31.536619 -114.080788 0.111715 -61.179677 40.405601 0.000000 0.000000 0.000000 7.125000 0.000000 0.000000 45.667408 64.635623 -23.990872
1.149251 15.308141 -5.493312 2.258505 -1.944711 -3.780883 0.000000 0.000000 0.000000 -1.523620 -28.985652 -28.404708 0.929164 6.140644 17.192948 0.392496 -4.016729 13.998870 0.849434 -5.878095 -16.431211 0.000000 0.000000 0.000000 22.556123 -25.447739 -30.999691 -12.508672 -18.597456 67.592184 -5.907373 -21.377311 -55.465168 -0.246998 -3.197382 8.828843 10.346955 11.095788 -2.310980 -6.792907 14.788770 -4.066973 -11.873340 7.398751 1.349776 -12.048593 -7.958897 2.780561 -12.360759 -3.948565 49.832795 -4.503768 -5.069801 19.191779 0.000000 0.000000 0.000000 19.289250 19.869491 -46.487108 18.105301 -28.291774 4.599054 16.228240 -25.759937 20.764088 0.000000 0.000000 0.000000 -7.125000 0.000000 0.000000 -7.858452 8.595508 -6.660180 0.000000 0.000000 0.000000 -126.216226 -78.038758 -82.257771 -159.315325 -31.458396 -114.115521 0.062765 -61.282708 40.484709 0.000000 0.000000 0.000000 7.125000 0.000000 0.000000 45.727193 64.705502 -24.097870
1.149874 15.314079 -5.483469 1.598222 -1.924809 -3.819932 0.000000 0.000000 0.000000 -0.777837 -29.042685 -28.653264 0.984503 6.315594 17.703001 0.375779 -4.022290 13.765813 0.808267 -5.737402 -16.024347 0.000000 0.000000 0.000000 23.310401 -25.557950 -30.715635 -12.351980 -18.535468 67.100104 -5.788802 -21.763386 -55.321125 -0.235475 -3.123003 8.621375 10.986299 11.132096 -2.336032 -6.690891 14.830633 -4.144693 -12.096553 7.414831 1.415934 -12.350208 -7.931461 2.837984 -12.060770 -3.977391 49.972952 -4.332307 -5.106752 19.316546 0.000000 0.000000 0.000000 19.284404 20.207919 -46.194085 18.109587 -28.297219 4.601034 16.386642 -25.432244 20.716942 0.000000 0.000000 0.000000 -7.125000 0.000000 0.000000 -7.754884 8.623778 -6.566522 0.000000 0.000000 0.000000 -126.315705 -77.914514 -82.034689 -159.218128 -31.572917 -114.064654 -0.866332 -60.106149 39.882357 0.000000 0.000000 0.000000 7.125000 0.000000 0.000000 43.947543 64.541468 -22.820263
